<svg width="46" height="25" viewBox="0 0 46 25" fill="none" xmlns="http://www.w3.org/2000/svg">
<path d="M37.4 1.2L37.2125 0.95L37.025 0.7L36.875 0.5H36.625H1.375H1.125L0.975 0.7L0.6 1.2L0.5 1.33333V1.5V5C0.5 10.3444 2.12407 15.2021 4.77373 18.735C7.42351 22.2681 11.1223 24.5 15.25 24.5H22.75C26.8777 24.5 30.5765 22.2681 33.2263 18.735C35.8759 15.2021 37.5 10.3444 37.5 5V1.5V1.33333L37.4 1.2ZM2.25 5V2.5H35.75V5C35.75 9.87284 34.268 14.2651 31.8959 17.4279C29.524 20.5906 26.2853 22.5 22.75 22.5H15.25C11.7147 22.5 8.47604 20.5906 6.10406 17.4279C3.73196 14.2651 2.25 9.87284 2.25 5Z" fill="black" stroke="black"/>
<mask id="path-2-outside-1_1_42" maskUnits="userSpaceOnUse" x="32.818" y="4.08621" width="13" height="15" fill="black">
<rect fill="white" x="32.818" y="4.08621" width="13" height="15"/>
<path fill-rule="evenodd" clip-rule="evenodd" d="M34.818 18H38.869C42.1351 18 44.7828 15.3523 44.7828 12.0862V11C44.7828 7.7339 42.1351 5.08621 38.869 5.08621H36.4112L36.2878 6.08621H38.869C41.5828 6.08621 43.7828 8.28619 43.7828 11V12.0862C43.7828 14.8 41.5828 17 38.869 17H34.9413L34.818 18Z"/>
</mask>
<path fill-rule="evenodd" clip-rule="evenodd" d="M34.818 18H38.869C42.1351 18 44.7828 15.3523 44.7828 12.0862V11C44.7828 7.7339 42.1351 5.08621 38.869 5.08621H36.4112L36.2878 6.08621H38.869C41.5828 6.08621 43.7828 8.28619 43.7828 11V12.0862C43.7828 14.8 41.5828 17 38.869 17H34.9413L34.818 18Z" fill="black"/>
<path d="M34.818 18L33.8255 17.8776L33.687 19H34.818V18ZM36.4112 5.08621V4.08621H35.527L35.4187 4.96377L36.4112 5.08621ZM36.2878 6.08621L35.2954 5.96377L35.1569 7.08621H36.2878V6.08621ZM34.9413 17V16H34.0571L33.9489 16.8776L34.9413 17ZM34.818 19H38.869V17H34.818V19ZM38.869 19C42.6874 19 45.7828 15.9046 45.7828 12.0862H43.7828C43.7828 14.8 41.5828 17 38.869 17V19ZM45.7828 12.0862V11H43.7828V12.0862H45.7828ZM45.7828 11C45.7828 7.18162 42.6874 4.08621 38.869 4.08621V6.08621C41.5828 6.08621 43.7828 8.28619 43.7828 11H45.7828ZM38.869 4.08621H36.4112V6.08621H38.869V4.08621ZM35.4187 4.96377L35.2954 5.96377L37.2803 6.20866L37.4037 5.20866L35.4187 4.96377ZM38.869 5.08621H36.2878V7.08621H38.869V5.08621ZM44.7828 11C44.7828 7.7339 42.1351 5.08621 38.869 5.08621V7.08621C41.0306 7.08621 42.7828 8.83847 42.7828 11H44.7828ZM44.7828 12.0862V11H42.7828V12.0862H44.7828ZM38.869 18C42.1351 18 44.7828 15.3523 44.7828 12.0862H42.7828C42.7828 14.2477 41.0306 16 38.869 16V18ZM34.9413 18H38.869V16H34.9413V18ZM33.9489 16.8776L33.8255 17.8776L35.8104 18.1224L35.9338 17.1224L33.9489 16.8776Z" fill="black" mask="url(#path-2-outside-1_1_42)"/>
<path d="M8.02871 7C7.94687 9 7.89729 9.8 10 13" stroke="black" stroke-width="3" stroke-linecap="round"/>
</svg>
