<svg width="6000" height="2500" viewBox="0 0 6000 2500" fill="none" xmlns="http://www.w3.org/2000/svg">
<rect x="1120.5" y="1816.5" width="911" height="71" rx="35.5" stroke="black" stroke-width="41"/>
<path d="M2105.91 1104.31L2100.48 1097.07L2095.05 1089.83L2092.05 1085.83H2087.05H1065.86H1060.86L1057.86 1089.83L1047 1104.31L1045 1106.98V1110.31V1211.71C1045 1365.66 1091.79 1505.42 1167.91 1606.92C1244.04 1708.42 1349.97 1772.14 1467.82 1772.14H1685.09C1802.94 1772.14 1908.88 1708.42 1985 1606.92C2061.13 1505.42 2107.91 1365.66 2107.91 1211.71V1110.31V1106.98L2105.91 1104.31ZM1086.73 1211.71V1134.8H2066.19V1211.71C2066.19 1353.75 2022.99 1481.96 1953.64 1574.43C1884.29 1666.91 1789.24 1723.17 1685.09 1723.17H1467.82C1363.68 1723.17 1268.63 1666.91 1199.28 1574.43C1129.92 1481.96 1086.73 1353.75 1086.73 1211.71Z" fill="black" stroke="black" stroke-width="20"/>
<path d="M1451.6 772.329C1398 876.329 1429.26 977.662 1451.6 1015.33C1486.98 1075 1482.81 1040 1477.6 957.829C1473.73 896.906 1521.32 777.716 1536.6 710.329C1560.81 603.5 1451.6 460.829 1463.1 491.329C1474.6 521.829 1518.6 642.329 1451.6 772.329Z" stroke="black" stroke-width="28" stroke-linejoin="round"/>
<path d="M1625.14 833.724C1574.21 906.887 1587.67 986.553 1600.77 1017.24C1621.52 1065.85 1621.88 1039 1626.18 976.425C1629.37 930.028 1677.29 844.79 1695.59 795.431C1724.6 717.182 1656.38 598.477 1662.01 622.665C1667.64 646.853 1688.81 742.271 1625.14 833.724Z" stroke="black" stroke-width="28" stroke-linejoin="round"/>
<mask id="path-5-outside-1_3_35" maskUnits="userSpaceOnUse" x="1961.13" y="1199.21" width="367" height="405" fill="black">
<rect fill="white" x="1961.13" y="1199.21" width="367" height="405"/>
<path fill-rule="evenodd" clip-rule="evenodd" d="M1981.13 1588.32H2141.05C2235.67 1588.32 2312.37 1511.61 2312.37 1416.99V1385.53C2312.37 1290.91 2235.67 1214.21 2141.05 1214.21H2089.29L2080.92 1243.18H2141.05C2219.67 1243.18 2283.4 1306.91 2283.4 1385.53V1416.99C2283.4 1495.61 2219.67 1559.35 2141.05 1559.35H1989.5L1981.13 1588.32Z"/>
</mask>
<path fill-rule="evenodd" clip-rule="evenodd" d="M1981.13 1588.32H2141.05C2235.67 1588.32 2312.37 1511.61 2312.37 1416.99V1385.53C2312.37 1290.91 2235.67 1214.21 2141.05 1214.21H2089.29L2080.92 1243.18H2141.05C2219.67 1243.18 2283.4 1306.91 2283.4 1385.53V1416.99C2283.4 1495.61 2219.67 1559.35 2141.05 1559.35H1989.5L1981.13 1588.32Z" fill="black"/>
<path d="M1981.13 1588.32L1966.72 1584.15L1961.18 1603.32H1981.13V1588.32ZM2089.29 1214.21V1199.21H2078.02L2074.88 1210.04L2089.29 1214.21ZM2080.92 1243.18L2066.51 1239.01L2060.97 1258.18H2080.92V1243.18ZM1989.5 1559.35V1544.35H1978.23L1975.09 1555.18L1989.5 1559.35ZM1981.13 1603.32H2141.05V1573.32H1981.13V1603.32ZM2141.05 1603.32C2243.95 1603.32 2327.37 1519.9 2327.37 1416.99H2297.37C2297.37 1503.33 2227.39 1573.32 2141.05 1573.32V1603.32ZM2327.37 1416.99V1385.53H2297.37V1416.99H2327.37ZM2327.37 1385.53C2327.37 1282.63 2243.95 1199.21 2141.05 1199.21V1229.21C2227.39 1229.21 2297.37 1299.19 2297.37 1385.53H2327.37ZM2141.05 1199.21H2089.29V1229.21H2141.05V1199.21ZM2074.88 1210.04L2066.51 1239.01L2095.33 1247.34L2103.7 1218.37L2074.88 1210.04ZM2141.05 1228.18H2080.92V1258.18H2141.05V1228.18ZM2298.4 1385.53C2298.4 1298.62 2227.95 1228.18 2141.05 1228.18V1258.18C2211.39 1258.18 2268.4 1315.19 2268.4 1385.53H2298.4ZM2298.4 1416.99V1385.53H2268.4V1416.99H2298.4ZM2141.05 1574.35C2227.95 1574.35 2298.4 1503.9 2298.4 1416.99H2268.4C2268.4 1487.33 2211.39 1544.35 2141.05 1544.35V1574.35ZM1989.5 1574.35H2141.05V1544.35H1989.5V1574.35ZM1975.09 1555.18L1966.72 1584.15L1995.54 1592.48L2003.91 1563.51L1975.09 1555.18Z" fill="black" mask="url(#path-5-outside-1_3_35)"/>
<path d="M1258.62 1269.65C1256.25 1327.59 1254.81 1350.76 1315.73 1443.47" stroke="black" stroke-width="50" stroke-linecap="round"/>
<path d="M3024.69 1025.75C3048.69 1025.75 3069.03 1028.92 3085.69 1035.25C3102.36 1041.42 3117.78 1050.33 3131.94 1062L3097.19 1103.25C3087.36 1094.92 3076.53 1088.58 3064.69 1084.25C3053.03 1079.92 3040.53 1077.75 3027.19 1077.75C3011.19 1077.75 2996.44 1082 2982.94 1090.5C2969.61 1099 2958.86 1112.67 2950.69 1131.5C2942.69 1150.17 2938.69 1174.83 2938.69 1205.5C2938.69 1235.67 2942.53 1260.08 2950.19 1278.75C2958.03 1297.42 2968.61 1311.08 2981.94 1319.75C2995.44 1328.25 3010.69 1332.5 3027.69 1332.5C3045.69 1332.5 3060.61 1329.33 3072.44 1323C3084.28 1316.67 3094.94 1309.75 3104.44 1302.25L3136.69 1343C3124.53 1355 3109.28 1365.25 3090.94 1373.75C3072.78 1382.25 3050.69 1386.5 3024.69 1386.5C2994.53 1386.5 2967.61 1379.58 2943.94 1365.75C2920.28 1351.92 2901.69 1331.58 2888.19 1304.75C2874.69 1277.92 2867.94 1244.83 2867.94 1205.5C2867.94 1166.83 2874.86 1134.17 2888.69 1107.5C2902.69 1080.67 2921.53 1060.33 2945.19 1046.5C2969.03 1032.67 2995.53 1025.75 3024.69 1025.75ZM3295.75 1106.75C3322.08 1106.75 3344.41 1112.5 3362.75 1124C3381.08 1135.5 3395 1151.75 3404.5 1172.75C3414.16 1193.58 3419 1218 3419 1246C3419 1274.67 3414.16 1299.5 3404.5 1320.5C3394.83 1341.5 3380.83 1357.75 3362.5 1369.25C3344.16 1380.75 3321.83 1386.5 3295.5 1386.5C3269.33 1386.5 3247 1380.92 3228.5 1369.75C3210.16 1358.42 3196.16 1342.33 3186.5 1321.5C3176.83 1300.5 3172 1275.5 3172 1246.5C3172 1218.83 3176.83 1194.5 3186.5 1173.5C3196.16 1152.5 3210.25 1136.17 3228.75 1124.5C3247.25 1112.67 3269.58 1106.75 3295.75 1106.75ZM3295.75 1156.5C3277.25 1156.5 3263.41 1163.75 3254.25 1178.25C3245.25 1192.75 3240.75 1215.5 3240.75 1246.5C3240.75 1277.83 3245.25 1300.75 3254.25 1315.25C3263.25 1329.58 3277 1336.75 3295.5 1336.75C3314 1336.75 3327.75 1329.58 3336.75 1315.25C3345.75 1300.75 3350.25 1277.67 3350.25 1246C3350.25 1215.17 3345.75 1192.58 3336.75 1178.25C3327.75 1163.75 3314.08 1156.5 3295.75 1156.5ZM3488.05 1379V1333.25H3525.3V1159.75H3488.05V1114.25H3575.55L3587.8 1175C3597.47 1152.5 3609.64 1135.58 3624.3 1124.25C3638.97 1112.75 3657.39 1107 3679.55 1107C3688.05 1107 3695.55 1107.67 3702.05 1109C3708.72 1110.33 3715.05 1112.08 3721.05 1114.25L3701.3 1169.75C3696.14 1168.42 3691.22 1167.42 3686.55 1166.75C3681.89 1165.92 3676.64 1165.5 3670.8 1165.5C3652.47 1165.5 3636.47 1172.67 3622.8 1187C3609.3 1201.17 3598.8 1220.42 3591.3 1244.75V1333.25H3644.05V1379H3488.05ZM3665.3 1217.5V1147.25L3674.3 1114.25H3721.05L3709.3 1217.5H3665.3ZM4013.86 1364.25C4004.02 1370.75 3992.11 1376.08 3978.11 1380.25C3964.11 1384.42 3948.94 1386.5 3932.61 1386.5C3900.27 1386.5 3875.94 1378.17 3859.61 1361.5C3843.27 1344.67 3835.11 1322.33 3835.11 1294.5V1161H3777.61V1114.25H3835.11V1056L3901.11 1048V1114.25H3988.61L3981.86 1161H3901.11V1294.25C3901.11 1307.92 3904.44 1317.92 3911.11 1324.25C3917.77 1330.58 3928.52 1333.75 3943.36 1333.75C3952.86 1333.75 3961.52 1332.67 3969.36 1330.5C3977.36 1328.17 3984.61 1325.25 3991.11 1321.75L4013.86 1364.25ZM4296.41 1309.25C4296.41 1319.42 4297.91 1326.83 4300.91 1331.5C4303.91 1336 4308.75 1339.42 4315.41 1341.75L4301.16 1386C4287 1384.5 4274.91 1381 4264.91 1375.5C4255.08 1369.83 4247.5 1361.42 4242.16 1350.25C4232.16 1362.42 4219.5 1371.5 4204.16 1377.5C4189 1383.5 4173.08 1386.5 4156.41 1386.5C4129.41 1386.5 4108 1378.83 4092.16 1363.5C4076.33 1348.17 4068.41 1328.25 4068.41 1303.75C4068.41 1275.58 4079.41 1253.92 4101.41 1238.75C4123.58 1223.42 4154.91 1215.75 4195.41 1215.75H4232.41V1201.5C4232.41 1185.83 4227.58 1174.5 4217.91 1167.5C4208.25 1160.33 4194.33 1156.75 4176.16 1156.75C4167.66 1156.75 4157 1157.92 4144.16 1160.25C4131.5 1162.42 4118.41 1165.83 4104.91 1170.5L4089.16 1125.25C4106 1118.92 4122.91 1114.25 4139.91 1111.25C4157.08 1108.25 4172.66 1106.75 4186.66 1106.75C4223.83 1106.75 4251.41 1114.67 4269.41 1130.5C4287.41 1146.17 4296.41 1168.42 4296.41 1197.25V1309.25ZM4177.91 1338.75C4187.91 1338.75 4198 1335.92 4208.16 1330.25C4218.5 1324.58 4226.58 1316.67 4232.41 1306.5V1255H4206.41C4181.91 1255 4164.16 1258.92 4153.16 1266.75C4142.33 1274.58 4136.91 1285.67 4136.91 1300C4136.91 1312.33 4140.41 1321.92 4147.41 1328.75C4154.41 1335.42 4164.58 1338.75 4177.91 1338.75ZM4538.47 1001.5L4604.47 1008.5V1379H4545.97L4541.97 1347.75C4533.8 1359.42 4523.55 1368.83 4511.22 1376C4498.88 1383 4484.55 1386.5 4468.22 1386.5C4445.88 1386.5 4427.38 1380.67 4412.72 1369C4398.22 1357.33 4387.38 1341 4380.22 1320C4373.22 1298.83 4369.72 1274.25 4369.72 1246.25C4369.72 1219.25 4373.88 1195.25 4382.22 1174.25C4390.55 1153.25 4402.55 1136.75 4418.22 1124.75C4434.05 1112.75 4452.8 1106.75 4474.47 1106.75C4487.47 1106.75 4499.3 1109 4509.97 1113.5C4520.63 1118 4530.13 1124.67 4538.47 1133.5V1001.5ZM4492.22 1156C4475.55 1156 4462.38 1163.25 4452.72 1177.75C4443.22 1192.08 4438.47 1215 4438.47 1246.5C4438.47 1268.67 4440.47 1286.42 4444.47 1299.75C4448.47 1312.92 4454.13 1322.42 4461.47 1328.25C4468.8 1334.08 4477.47 1337 4487.47 1337C4498.47 1337 4508.13 1333.75 4516.47 1327.25C4524.97 1320.58 4532.3 1312.33 4538.47 1302.5V1182C4532.3 1173.83 4525.38 1167.5 4517.72 1163C4510.22 1158.33 4501.72 1156 4492.22 1156ZM4896.02 1309.25C4896.02 1319.42 4897.52 1326.83 4900.52 1331.5C4903.52 1336 4908.35 1339.42 4915.02 1341.75L4900.77 1386C4886.6 1384.5 4874.52 1381 4864.52 1375.5C4854.69 1369.83 4847.1 1361.42 4841.77 1350.25C4831.77 1362.42 4819.1 1371.5 4803.77 1377.5C4788.6 1383.5 4772.69 1386.5 4756.02 1386.5C4729.02 1386.5 4707.6 1378.83 4691.77 1363.5C4675.94 1348.17 4668.02 1328.25 4668.02 1303.75C4668.02 1275.58 4679.02 1253.92 4701.02 1238.75C4723.19 1223.42 4754.52 1215.75 4795.02 1215.75H4832.02V1201.5C4832.02 1185.83 4827.19 1174.5 4817.52 1167.5C4807.85 1160.33 4793.94 1156.75 4775.77 1156.75C4767.27 1156.75 4756.6 1157.92 4743.77 1160.25C4731.1 1162.42 4718.02 1165.83 4704.52 1170.5L4688.77 1125.25C4705.6 1118.92 4722.52 1114.25 4739.52 1111.25C4756.69 1108.25 4772.27 1106.75 4786.27 1106.75C4823.44 1106.75 4851.02 1114.67 4869.02 1130.5C4887.02 1146.17 4896.02 1168.42 4896.02 1197.25V1309.25ZM4777.52 1338.75C4787.52 1338.75 4797.6 1335.92 4807.77 1330.25C4818.1 1324.58 4826.19 1316.67 4832.02 1306.5V1255H4806.02C4781.52 1255 4763.77 1258.92 4752.77 1266.75C4741.94 1274.58 4736.52 1285.67 4736.52 1300C4736.52 1312.33 4740.02 1321.92 4747.02 1328.75C4754.02 1335.42 4764.19 1338.75 4777.52 1338.75Z" fill="black"/>
<path d="M3042.92 1723.43C3042.92 1738.31 3039.08 1751.41 3031.41 1762.74C3023.86 1774.07 3012.94 1782.98 2998.66 1789.47C2984.38 1795.84 2967.09 1799.03 2946.78 1799.03C2925.54 1799.03 2907.3 1795.9 2892.08 1789.65C2876.85 1783.27 2864.11 1775.13 2853.84 1765.22L2879.33 1736.71C2888.18 1744.62 2898.1 1750.82 2909.07 1755.3C2920.05 1759.79 2932.39 1762.03 2946.08 1762.03C2954.81 1762.03 2962.66 1760.67 2969.62 1757.96C2976.71 1755.24 2982.25 1751.29 2986.27 1746.1C2990.4 1740.78 2992.46 1734.29 2992.46 1726.62C2992.46 1719.89 2991.05 1714.23 2988.21 1709.62C2985.38 1705.02 2980.48 1700.89 2973.52 1697.23C2966.67 1693.57 2957.11 1689.91 2944.84 1686.25C2926.78 1680.71 2911.91 1674.63 2900.22 1668.02C2888.54 1661.29 2879.86 1653.38 2874.2 1644.3C2868.53 1635.09 2865.7 1624.23 2865.7 1611.72C2865.7 1597.67 2869.59 1585.58 2877.38 1575.43C2885.17 1565.16 2895.68 1557.31 2908.9 1551.88C2922.23 1546.33 2937.11 1543.56 2953.51 1543.56C2971.69 1543.56 2987.68 1546.21 3001.49 1551.53C3015.3 1556.72 3027.46 1564.15 3037.96 1573.83L3013.71 1601.27C3005.33 1594.07 2996.24 1588.76 2986.44 1585.34C2976.76 1581.92 2966.91 1580.21 2956.88 1580.21C2948.97 1580.21 2941.89 1581.27 2935.63 1583.39C2929.49 1585.52 2924.65 1588.65 2921.11 1592.78C2917.57 1596.91 2915.8 1602.16 2915.8 1608.53C2915.8 1614.32 2917.4 1619.27 2920.58 1623.4C2923.89 1627.42 2929.49 1631.19 2937.4 1634.74C2945.31 1638.16 2956.17 1642.05 2969.98 1646.42C2984.49 1650.79 2997.18 1656.04 3008.04 1662.18C3019.02 1668.31 3027.58 1676.28 3033.71 1686.08C3039.85 1695.76 3042.92 1708.21 3042.92 1723.43ZM3180.87 1761.5C3189.14 1761.5 3196.87 1759.96 3204.07 1756.89C3211.38 1753.83 3218.41 1749.93 3225.13 1745.21L3246.38 1775.13C3238.12 1782.09 3228.14 1787.82 3216.46 1792.3C3204.77 1796.79 3192.26 1799.03 3178.93 1799.03C3159.33 1799.03 3142.51 1794.96 3128.47 1786.82C3114.54 1778.55 3103.8 1767.1 3096.25 1752.47C3088.81 1737.72 3085.09 1720.6 3085.09 1701.13C3085.09 1681.89 3088.87 1664.71 3096.42 1649.61C3104.1 1634.38 3114.96 1622.46 3129 1613.84C3143.16 1605.23 3160.04 1600.92 3179.63 1600.92C3193.09 1600.92 3205.25 1602.87 3216.11 1606.76C3227.08 1610.54 3237.11 1616.2 3246.2 1623.76L3225.49 1652.44C3218.53 1647.6 3211.33 1643.94 3203.89 1641.46C3196.57 1638.87 3188.96 1637.57 3181.05 1637.57C3167.24 1637.57 3155.97 1642.58 3147.24 1652.62C3138.62 1662.53 3134.31 1678.7 3134.31 1701.13C3134.31 1715.88 3136.32 1727.68 3140.33 1736.54C3144.46 1745.39 3150.01 1751.76 3156.97 1755.66C3164.06 1759.55 3172.02 1761.5 3180.87 1761.5ZM3300.59 1793.72V1761.32H3326.97V1638.45H3300.59V1606.23H3362.56L3371.23 1649.25C3378.08 1633.32 3386.7 1621.34 3397.08 1613.31C3407.47 1605.17 3420.51 1601.1 3436.21 1601.1C3442.23 1601.1 3447.54 1601.57 3452.14 1602.51C3456.86 1603.46 3461.35 1604.7 3465.6 1606.23L3451.61 1645.54C3447.95 1644.59 3444.47 1643.88 3441.17 1643.41C3437.86 1642.82 3434.14 1642.53 3430.01 1642.53C3417.03 1642.53 3405.7 1647.6 3396.02 1657.75C3386.46 1667.78 3379.02 1681.42 3373.71 1698.65V1761.32H3411.07V1793.72H3300.59ZM3426.12 1679.35V1629.6L3432.49 1606.23H3465.6L3457.28 1679.35H3426.12ZM3618.96 1606.23V1760.61H3668.35V1793.72H3517.33V1760.61H3572.22V1639.34H3519.1V1606.23H3618.96ZM3588.68 1511.69C3597.3 1511.69 3604.26 1514.35 3609.57 1519.66C3615 1524.97 3617.72 1531.58 3617.72 1539.49C3617.72 1547.39 3615 1554.06 3609.57 1559.49C3604.26 1564.8 3597.3 1567.46 3588.68 1567.46C3580.07 1567.46 3573.04 1564.8 3567.61 1559.49C3562.18 1554.06 3559.47 1547.39 3559.47 1539.49C3559.47 1531.58 3562.18 1524.97 3567.61 1519.66C3573.04 1514.35 3580.07 1511.69 3588.68 1511.69ZM3820.29 1600.92C3836.82 1600.92 3850.04 1604.99 3859.95 1613.14C3869.98 1621.16 3877.24 1632.55 3881.73 1647.31C3886.33 1662.06 3888.63 1679.47 3888.63 1699.53C3888.63 1718.77 3885.86 1735.89 3880.31 1750.88C3874.76 1765.87 3866.62 1777.67 3855.88 1786.28C3845.25 1794.78 3832.15 1799.03 3816.57 1799.03C3797.45 1799.03 3781.99 1792.24 3770.19 1778.67V1865.95L3723.45 1870.91V1606.23H3764.52L3767 1629.07C3774.44 1619.39 3782.76 1612.31 3791.97 1607.82C3801.17 1603.22 3810.61 1600.92 3820.29 1600.92ZM3806.66 1635.97C3798.75 1635.97 3791.79 1638.34 3785.77 1643.06C3779.87 1647.78 3774.67 1653.62 3770.19 1660.58V1744.5C3774.44 1750.88 3779.28 1755.66 3784.71 1758.84C3790.14 1762.03 3796.27 1763.62 3803.12 1763.62C3815.04 1763.62 3824.13 1758.67 3830.38 1748.75C3836.76 1738.72 3839.94 1722.49 3839.94 1700.06C3839.94 1684.25 3838.65 1671.68 3836.05 1662.35C3833.57 1652.91 3829.85 1646.18 3824.89 1642.17C3819.94 1638.04 3813.86 1635.97 3806.66 1635.97ZM4097.58 1783.27C4090.62 1787.88 4082.18 1791.65 4072.26 1794.61C4062.35 1797.56 4051.61 1799.03 4040.04 1799.03C4017.14 1799.03 3999.91 1793.13 3988.34 1781.33C3976.78 1769.41 3970.99 1753.59 3970.99 1733.88V1639.34H3930.27V1606.23H3970.99V1564.98L4017.73 1559.32V1606.23H4079.7L4074.92 1639.34H4017.73V1733.7C4017.73 1743.38 4020.09 1750.46 4024.81 1754.95C4029.54 1759.43 4037.15 1761.68 4047.65 1761.68C4054.38 1761.68 4060.52 1760.91 4066.07 1759.37C4071.73 1757.72 4076.87 1755.66 4081.47 1753.18L4097.58 1783.27Z" fill="black"/>
<path d="M4446.8 1549.68V1786.92H4407.5V1590.4L4353.68 1623.51L4336.68 1595.71L4411.75 1549.68H4446.8ZM4495.67 1762.84V1794H4347.83V1762.84H4495.67ZM4592.19 1764.43C4592.19 1758.06 4593.67 1752.34 4596.62 1747.26C4599.69 1742.07 4603.82 1737.94 4609.01 1734.87C4614.2 1731.8 4619.99 1730.26 4626.36 1730.26C4632.85 1730.26 4638.7 1731.8 4643.89 1734.87C4649.08 1737.94 4653.15 1742.07 4656.1 1747.26C4659.17 1752.34 4660.71 1758.06 4660.71 1764.43C4660.71 1770.69 4659.17 1776.47 4656.1 1781.78C4653.15 1786.98 4649.08 1791.11 4643.89 1794.18C4638.7 1797.25 4632.85 1798.78 4626.36 1798.78C4619.99 1798.78 4614.2 1797.25 4609.01 1794.18C4603.82 1791.11 4599.69 1786.98 4596.62 1781.78C4593.67 1776.47 4592.19 1770.69 4592.19 1764.43ZM4838.85 1544.72C4866.23 1544.72 4886.95 1555.76 4900.99 1577.83C4915.04 1599.9 4922.06 1631.12 4922.06 1671.49C4922.06 1711.97 4915.04 1743.31 4900.99 1765.5C4886.95 1787.69 4866.23 1798.78 4838.85 1798.78C4811.35 1798.78 4790.58 1787.69 4776.53 1765.5C4762.61 1743.31 4755.64 1711.97 4755.64 1671.49C4755.64 1631.12 4762.61 1599.9 4776.53 1577.83C4790.58 1555.76 4811.35 1544.72 4838.85 1544.72ZM4838.85 1575C4824.81 1575 4814.01 1582.49 4806.45 1597.48C4798.9 1612.35 4795.12 1637.02 4795.12 1671.49C4795.12 1689.9 4795.89 1705.36 4797.42 1717.87C4799.08 1730.26 4801.61 1740.18 4805.04 1747.61C4808.58 1755.05 4813.12 1760.42 4818.67 1763.73C4824.22 1766.91 4830.94 1768.51 4838.85 1768.51C4848.29 1768.51 4856.26 1765.32 4862.75 1758.95C4869.24 1752.45 4874.14 1742.07 4877.45 1727.79C4880.87 1713.5 4882.58 1694.74 4882.58 1671.49C4882.58 1647.29 4881.11 1628.17 4878.16 1614.12C4875.32 1599.96 4870.72 1589.93 4864.35 1584.03C4857.97 1578.01 4849.47 1575 4838.85 1575ZM4871.78 1583.32L4882.05 1611.11L4809.11 1760.01L4796.01 1737.52L4871.78 1583.32Z" fill="#3D3D3D"/>
</svg>
